<?xml version="1.0" encoding="UTF-8" standalone="no"?>
<!DOCTYPE svg PUBLIC "-//W3C//DTD SVG 1.1//EN"
 "http://www.w3.org/Graphics/SVG/1.1/DTD/svg11.dtd">
<!-- Generated by graphviz version 2.38.0 (20140413.2041)
 -->
<!-- Title: %3 Pages: 1 -->
<svg width="190pt" height="188pt"
 viewBox="0.00 0.00 190.40 188.00" xmlns="http://www.w3.org/2000/svg" xmlns:xlink="http://www.w3.org/1999/xlink">
<g id="graph0" class="graph" transform="scale(1 1) rotate(0) translate(4 184)">
<title>%3</title>
<polygon fill="white" stroke="none" points="-4,4 -4,-184 186.397,-184 186.397,4 -4,4"/>
<!-- auth -->
<g id="node1" class="node"><title>auth</title>
<ellipse fill="none" stroke="black" cx="27.3968" cy="-162" rx="27" ry="18"/>
<text text-anchor="middle" x="27.3968" y="-158.3" font-family="Times,serif" font-size="14.00">auth</text>
</g>
<!-- usuario -->
<g id="node2" class="node"><title>usuario</title>
<ellipse fill="none" stroke="black" cx="36.3968" cy="-90" rx="36.2938" ry="18"/>
<text text-anchor="middle" x="36.3968" y="-86.3" font-family="Times,serif" font-size="14.00">usuario</text>
</g>
<!-- auth&#45;&#45;usuario -->
<g id="edge1" class="edge"><title>auth&#45;&#45;usuario</title>
<path fill="none" stroke="black" d="M29.5754,-144.055C30.9696,-133.211 32.7732,-119.183 34.1757,-108.275"/>
</g>
<!-- dependencia -->
<g id="node3" class="node"><title>dependencia</title>
<ellipse fill="none" stroke="black" cx="68.3968" cy="-18" rx="54.6905" ry="18"/>
<text text-anchor="middle" x="68.3968" y="-14.3" font-family="Times,serif" font-size="14.00">dependencia</text>
</g>
<!-- usuario&#45;&#45;dependencia -->
<g id="edge2" class="edge"><title>usuario&#45;&#45;dependencia</title>
<path fill="none" stroke="black" d="M44.1431,-72.055C49.1003,-61.2111 55.5131,-47.183 60.4995,-36.2753"/>
</g>
<!-- reunion -->
<g id="node4" class="node"><title>reunion</title>
<ellipse fill="none" stroke="black" cx="110.397" cy="-162" rx="37.8943" ry="18"/>
<text text-anchor="middle" x="110.397" y="-158.3" font-family="Times,serif" font-size="14.00">reunion</text>
</g>
<!-- reunion&#45;&#45;usuario -->
<g id="edge3" class="edge"><title>reunion&#45;&#45;usuario</title>
<path fill="none" stroke="black" d="M93.9738,-145.465C81.6255,-133.784 64.7939,-117.862 52.5193,-106.251"/>
</g>
<!-- reunion&#45;&#45;dependencia -->
<g id="edge4" class="edge"><title>reunion&#45;&#45;dependencia</title>
<path fill="none" stroke="black" d="M105.414,-144.153C97.3741,-116.971 81.6228,-63.7165 73.5042,-36.2678"/>
</g>
<!-- sala -->
<g id="node5" class="node"><title>sala</title>
<ellipse fill="none" stroke="black" cx="155.397" cy="-90" rx="27" ry="18"/>
<text text-anchor="middle" x="155.397" y="-86.3" font-family="Times,serif" font-size="14.00">sala</text>
</g>
<!-- reunion&#45;&#45;sala -->
<g id="edge5" class="edge"><title>reunion&#45;&#45;sala</title>
<path fill="none" stroke="black" d="M121.061,-144.411C128.338,-133.091 137.925,-118.178 145.119,-106.988"/>
</g>
</g>
</svg>
<?xml version="1.0" encoding="UTF-8" standalone="no"?>
<!DOCTYPE svg PUBLIC "-//W3C//DTD SVG 1.1//EN"
 "http://www.w3.org/Graphics/SVG/1.1/DTD/svg11.dtd">
<!-- Generated by graphviz version 2.38.0 (20140413.2041)
 -->
<!-- Title: %15 Pages: 1 -->
<svg width="190pt" height="188pt"
 viewBox="0.00 0.00 190.40 188.00" xmlns="http://www.w3.org/2000/svg" xmlns:xlink="http://www.w3.org/1999/xlink">
<g id="graph0" class="graph" transform="scale(1 1) rotate(0) translate(4 184)">
<title>%15</title>
<polygon fill="white" stroke="none" points="-4,4 -4,-184 186.397,-184 186.397,4 -4,4"/>
<!-- auth -->
<g id="node1" class="node"><title>auth</title>
<ellipse fill="none" stroke="black" cx="27.3968" cy="-162" rx="27" ry="18"/>
<text text-anchor="middle" x="27.3968" y="-158.3" font-family="Times,serif" font-size="14.00">auth</text>
</g>
<!-- usuario -->
<g id="node2" class="node"><title>usuario</title>
<ellipse fill="none" stroke="black" cx="36.3968" cy="-90" rx="36.2938" ry="18"/>
<text text-anchor="middle" x="36.3968" y="-86.3" font-family="Times,serif" font-size="14.00">usuario</text>
</g>
<!-- auth&#45;&#45;usuario -->
<g id="edge1" class="edge"><title>auth&#45;&#45;usuario</title>
<path fill="none" stroke="black" d="M29.5754,-144.055C30.9696,-133.211 32.7732,-119.183 34.1757,-108.275"/>
</g>
<!-- dependencia -->
<g id="node3" class="node"><title>dependencia</title>
<ellipse fill="none" stroke="black" cx="68.3968" cy="-18" rx="54.6905" ry="18"/>
<text text-anchor="middle" x="68.3968" y="-14.3" font-family="Times,serif" font-size="14.00">dependencia</text>
</g>
<!-- usuario&#45;&#45;dependencia -->
<g id="edge2" class="edge"><title>usuario&#45;&#45;dependencia</title>
<path fill="none" stroke="black" d="M44.1431,-72.055C49.1003,-61.2111 55.5131,-47.183 60.4995,-36.2753"/>
</g>
<!-- reunion -->
<g id="node4" class="node"><title>reunion</title>
<ellipse fill="none" stroke="black" cx="110.397" cy="-162" rx="37.8943" ry="18"/>
<text text-anchor="middle" x="110.397" y="-158.3" font-family="Times,serif" font-size="14.00">reunion</text>
</g>
<!-- reunion&#45;&#45;usuario -->
<g id="edge3" class="edge"><title>reunion&#45;&#45;usuario</title>
<path fill="none" stroke="black" d="M93.9738,-145.465C81.6255,-133.784 64.7939,-117.862 52.5193,-106.251"/>
</g>
<!-- reunion&#45;&#45;dependencia -->
<g id="edge4" class="edge"><title>reunion&#45;&#45;dependencia</title>
<path fill="none" stroke="black" d="M105.414,-144.153C97.3741,-116.971 81.6228,-63.7165 73.5042,-36.2678"/>
</g>
<!-- sala -->
<g id="node5" class="node"><title>sala</title>
<ellipse fill="none" stroke="black" cx="155.397" cy="-90" rx="27" ry="18"/>
<text text-anchor="middle" x="155.397" y="-86.3" font-family="Times,serif" font-size="14.00">sala</text>
</g>
<!-- reunion&#45;&#45;sala -->
<g id="edge5" class="edge"><title>reunion&#45;&#45;sala</title>
<path fill="none" stroke="black" d="M121.061,-144.411C128.338,-133.091 137.925,-118.178 145.119,-106.988"/>
</g>
</g>
</svg>
<?xml version="1.0" encoding="UTF-8" standalone="no"?>
<!DOCTYPE svg PUBLIC "-//W3C//DTD SVG 1.1//EN"
 "http://www.w3.org/Graphics/SVG/1.1/DTD/svg11.dtd">
<!-- Generated by graphviz version 2.38.0 (20140413.2041)
 -->
<!-- Title: %15 Pages: 1 -->
<svg width="190pt" height="188pt"
 viewBox="0.00 0.00 190.40 188.00" xmlns="http://www.w3.org/2000/svg" xmlns:xlink="http://www.w3.org/1999/xlink">
<g id="graph0" class="graph" transform="scale(1 1) rotate(0) translate(4 184)">
<title>%15</title>
<polygon fill="white" stroke="none" points="-4,4 -4,-184 186.397,-184 186.397,4 -4,4"/>
<!-- auth -->
<g id="node1" class="node"><title>auth</title>
<ellipse fill="none" stroke="black" cx="27.3968" cy="-162" rx="27" ry="18"/>
<text text-anchor="middle" x="27.3968" y="-158.3" font-family="Times,serif" font-size="14.00">auth</text>
</g>
<!-- usuario -->
<g id="node2" class="node"><title>usuario</title>
<ellipse fill="none" stroke="black" cx="36.3968" cy="-90" rx="36.2938" ry="18"/>
<text text-anchor="middle" x="36.3968" y="-86.3" font-family="Times,serif" font-size="14.00">usuario</text>
</g>
<!-- auth&#45;&#45;usuario -->
<g id="edge1" class="edge"><title>auth&#45;&#45;usuario</title>
<path fill="none" stroke="black" d="M29.5754,-144.055C30.9696,-133.211 32.7732,-119.183 34.1757,-108.275"/>
</g>
<!-- dependencia -->
<g id="node3" class="node"><title>dependencia</title>
<ellipse fill="none" stroke="black" cx="68.3968" cy="-18" rx="54.6905" ry="18"/>
<text text-anchor="middle" x="68.3968" y="-14.3" font-family="Times,serif" font-size="14.00">dependencia</text>
</g>
<!-- usuario&#45;&#45;dependencia -->
<g id="edge2" class="edge"><title>usuario&#45;&#45;dependencia</title>
<path fill="none" stroke="black" d="M44.1431,-72.055C49.1003,-61.2111 55.5131,-47.183 60.4995,-36.2753"/>
</g>
<!-- reunion -->
<g id="node4" class="node"><title>reunion</title>
<ellipse fill="none" stroke="black" cx="110.397" cy="-162" rx="37.8943" ry="18"/>
<text text-anchor="middle" x="110.397" y="-158.3" font-family="Times,serif" font-size="14.00">reunion</text>
</g>
<!-- reunion&#45;&#45;usuario -->
<g id="edge3" class="edge"><title>reunion&#45;&#45;usuario</title>
<path fill="none" stroke="black" d="M93.9738,-145.465C81.6255,-133.784 64.7939,-117.862 52.5193,-106.251"/>
</g>
<!-- reunion&#45;&#45;dependencia -->
<g id="edge4" class="edge"><title>reunion&#45;&#45;dependencia</title>
<path fill="none" stroke="black" d="M105.414,-144.153C97.3741,-116.971 81.6228,-63.7165 73.5042,-36.2678"/>
</g>
<!-- sala -->
<g id="node5" class="node"><title>sala</title>
<ellipse fill="none" stroke="black" cx="155.397" cy="-90" rx="27" ry="18"/>
<text text-anchor="middle" x="155.397" y="-86.3" font-family="Times,serif" font-size="14.00">sala</text>
</g>
<!-- reunion&#45;&#45;sala -->
<g id="edge5" class="edge"><title>reunion&#45;&#45;sala</title>
<path fill="none" stroke="black" d="M121.061,-144.411C128.338,-133.091 137.925,-118.178 145.119,-106.988"/>
</g>
</g>
</svg>
